<svg id="Layer_1" data-name="Layer 1" xmlns="http://www.w3.org/2000/svg" viewBox="0 0 24 24"><title>Artboard 1</title><rect x="0.4" y="12.57" width="4.16" height="6.81"/><path d="M18.08,18.05V14.14H13.86l2.35,1.47a2,2,0,0,1,.3,2.45Z"/><polygon points="12.9 13.3 18.28 13.33 20 10.64 12.9 10.64 12.9 13.3"/><polygon points="22.25 13.34 20.73 10.99 19.24 13.33 22.25 13.34"/><path d="M18.89,18l3-3.26a.43.43,0,0,1,.29-.13c.14,0,.26,0,.39,0v-.46h-3.7Z"/><path d="M23.37,15.77a1.35,1.35,0,0,0-1-.37l-3.12,3.36s-.05,0-.09,0l-.09,0a.25.25,0,0,1-.17,0H15.25a.39.39,0,0,1-.18-.06h0s0,0-.05,0l-4.72-2.33a.39.39,0,0,1-.18-.54.4.4,0,0,1,.54-.18L15.29,18a1.16,1.16,0,0,0,.39-.22,1.12,1.12,0,0,0,0-1.58L12,13.93l-6.66-.54v5.28L11.47,21a.8.8,0,0,0,.24,0h7.65a.26.26,0,0,0,.16-.06l4.08-4.61A.93.93,0,0,0,23.37,15.77Z"/><path d="M12.09,6.09H7.84v6.69l4.25.35ZM9.13,11h-.7v-.7h.7Zm0-1.63h-.7V8.66h.7Zm0-1.62h-.7V7h.7ZM10.32,11h-.7v-.7h.7Zm0-1.63h-.7V8.66h.7Zm0-1.62h-.7V7h.7ZM11.51,11h-.7v-.7h.7Zm0-1.63h-.7V8.66h.7Zm0-1.62h-.7V7h.7Z"/><path d="M12.9,5.69V9.62h2.69V3H10.86V5.27h1.63A.42.42,0,0,1,12.9,5.69Zm1.73-1.86h.7v.7h-.7Zm0,1.62h.7v.69h-.7Zm0,1.61h.7v.69h-.7Zm0,1.6h.7v.69h-.7ZM13.44,3.83h.7v.7h-.7Zm0,1.62h.7v.69h-.7Zm0,1.61h.7v.69h-.7Zm0,1.6h.7v.69h-.7ZM12.15,3.83h.69v.7h-.69Z"/><path d="M18,3H16.4V9.62H18Zm-.46,6.4h-.7V8.66h.7Zm0-1.6h-.7V7.06h.7Zm0-1.61h-.7V5.45h.7Zm0-1.61h-.7v-.7h.7Z"/></svg>