<?xml version="1.0" standalone="no"?>
<!DOCTYPE svg PUBLIC "-//W3C//DTD SVG 20010904//EN"
 "http://www.w3.org/TR/2001/REC-SVG-20010904/DTD/svg10.dtd">
<svg version="1.0" xmlns="http://www.w3.org/2000/svg"
  width="100%" height="75.000000pt" viewBox="25 400 700.81 100.11"
 preserveAspectRatio="xMidYMid meet">

<g transform="translate(0.000000,1080.000000) scale(0.100000,-0.100000)"
fill="#530075" stroke="none">
<path d="M257 6852 l-97 -97 0 -330 c0 -316 1 -330 20 -350 l20 -22 -20 -18
c-19 -17 -20 -30 -20 -350 l0 -332 23 -21 c22 -21 31 -22 233 -22 138 0 214 4
221 11 8 8 13 8 17 0 10 -15 438 -15 453 0 8 8 13 8 17 0 5 -7 77 -11 220 -11
l212 0 92 94 92 93 0 56 c0 72 -32 114 -88 119 l-37 3 -3 614 -2 615 -22 23
c-20 22 -28 23 -161 23 -117 0 -144 -3 -159 -17 -17 -15 -19 -15 -36 0 -16 15
-47 17 -221 17 -170 0 -203 -2 -207 -15 -4 -8 -12 -15 -19 -15 -7 0 -18 7 -25
15 -10 12 -46 15 -209 15 l-196 0 -98 -98z m493 -67 l0 -115 -79 0 -80 0 -3
48 c-3 47 -3 47 -38 47 l-35 0 -3 -202 -2 -203 40 0 40 0 0 70 c0 63 -2 70
-20 70 -18 0 -20 7 -20 65 l0 65 100 0 100 0 0 -200 0 -200 -200 0 -200 0 0
335 0 335 200 0 200 0 0 -115z m465 0 l0 -110 -80 0 -80 0 -3 48 c-3 48 -4 48
-35 45 l-32 -3 -3 -202 -2 -203 35 0 35 0 0 70 c0 64 -2 70 -20 70 -19 0 -21
5 -18 63 l3 62 100 0 100 0 0 -195 0 -195 -197 -3 -198 -2 0 335 0 335 198 -2
197 -3 0 -110z m345 -525 l0 -640 60 0 60 0 0 -65 0 -65 -197 2 -198 3 0 60 0
60 58 3 57 3 0 574 0 575 -60 0 -60 0 0 58 c0 32 3 62 7 65 3 4 66 7 140 7
l133 0 0 -640z m-812 -167 l-3 -68 -118 -3 -118 -3 3 -62 3 -62 98 -3 97 -3 0
-64 0 -64 -97 -3 -98 -3 -3 -67 -3 -68 121 0 120 0 0 -65 0 -65 -200 0 -200 0
0 328 c0 181 3 332 7 335 3 4 94 7 200 7 l194 0 -3 -67z m466 51 c3 -9 6 -36
6 -62 0 -40 -14 -70 -109 -236 -61 -105 -113 -199 -116 -208 -6 -16 4 -18 107
-20 l113 -3 0 -60 0 -60 -197 -3 -198 -2 0 65 c0 66 0 66 115 263 l115 197
-115 3 -115 3 0 69 0 70 194 0 c168 0 195 -2 200 -16z"/>
<path d="M2192 6837 l-112 -114 0 -640 0 -641 31 -26 31 -26 378 0 379 0 33
29 33 29 33 -29 32 -29 380 0 379 0 33 29 33 29 33 -29 32 -29 380 0 379 0 33
29 33 29 33 -29 32 -29 383 0 383 0 29 30 28 29 34 -29 34 -30 381 0 381 0
114 112 113 112 0 126 0 126 -33 32 c-31 30 -37 32 -110 32 l-77 0 0 474 0
474 -36 36 -36 36 -262 0 -262 0 -29 -30 c-16 -16 -34 -30 -40 -30 -6 0 -24
14 -40 30 l-29 30 -374 0 -374 0 -35 -30 c-18 -16 -37 -30 -41 -30 -5 0 -21
14 -37 30 l-29 30 -375 0 -376 0 -37 -34 -36 -34 -33 34 -33 34 -378 0 -377 0
-36 -31 -36 -32 -32 32 -33 31 -380 0 -380 0 -112 -113z m868 -172 l0 -215
-150 0 -150 0 0 90 0 90 -75 0 -75 0 2 -382 3 -383 70 0 70 0 0 130 0 130 -37
3 -38 3 0 125 0 124 190 0 190 0 0 -385 0 -385 -372 2 -373 3 -3 633 -2 632
375 0 375 0 0 -215z m890 0 l0 -215 -150 0 -150 0 0 90 0 90 -75 0 -75 0 2
-382 3 -383 70 0 70 0 3 133 3 132 -41 0 -40 0 0 125 0 125 190 0 190 0 0
-385 0 -385 -372 2 -373 3 -3 633 -2 632 375 0 375 0 0 -215z m890 90 l0 -125
-220 0 -220 0 0 -125 0 -125 185 0 185 0 0 -125 0 -125 -185 0 -185 0 0 -135
0 -135 220 0 220 0 0 -125 0 -125 -375 0 -375 0 0 635 0 635 375 0 375 0 0
-125z m900 7 l0 -118 -98 -169 c-54 -94 -156 -268 -225 -387 -70 -120 -127
-220 -127 -223 0 -3 101 -5 225 -5 l226 0 -3 -122 -3 -123 -375 0 -375 0 -3
123 -3 123 225 384 224 385 -222 2 -221 3 -3 123 -3 122 381 0 380 0 0 -118z
m662 -389 l3 -508 108 -3 107 -3 0 -124 0 -125 -372 2 -373 3 -3 122 -3 122
113 3 113 3 3 382 2 382 -112 3 -113 3 -3 123 -3 122 266 0 265 0 2 -507z"/>
</g>
</svg>
