<?xml version="1.0" standalone="no"?>
<!DOCTYPE svg PUBLIC "-//W3C//DTD SVG 20010904//EN"
 "http://www.w3.org/TR/2001/REC-SVG-20010904/DTD/svg10.dtd">
<svg version="1.0" xmlns="http://www.w3.org/2000/svg"
width="100%" height="75.000000pt" viewBox="270 400 800.81 100.11" preserveAspectRatio="xMidYMid meet">

<g transform="translate(0.000000,1080.000000) scale(0.100000,-0.100000)"
fill="#FFFFFF" stroke="none">
<path d="M9222 7417 l-92 -92 0 -324 c0 -288 2 -326 17 -343 15 -17 15 -19 0
-36 -15 -17 -17 -55 -17 -342 l0 -324 27 -28 27 -28 197 0 c161 0 199 3 209
15 11 13 15 13 33 0 17 -12 60 -15 211 -15 162 0 192 2 208 17 17 15 19 15 36
0 16 -15 46 -17 213 -17 l194 0 93 93 92 92 0 66 c0 58 -3 68 -28 92 -16 16
-39 27 -55 27 l-27 0 0 589 0 589 -26 31 -26 31 -136 0 c-112 0 -139 -3 -154
-17 -17 -15 -19 -15 -36 0 -16 15 -46 17 -212 17 -166 0 -196 -2 -212 -17 -17
-15 -19 -15 -36 0 -16 15 -46 17 -213 17 l-194 0 -93 -93z m478 -67 l0 -110
-75 0 -75 0 0 46 0 45 -37 -3 -38 -3 -3 -192 -2 -193 40 0 40 0 0 64 c0 59 -2
65 -22 68 -21 3 -23 8 -23 63 l0 60 98 3 97 3 0 -196 0 -195 -190 0 -190 0 0
325 0 325 190 0 190 0 0 -110z m460 0 l0 -110 -74 0 -75 0 -3 43 c-3 41 -4 42
-40 45 l-38 3 0 -195 0 -196 40 0 40 0 0 65 c0 63 -1 65 -25 65 -25 0 -26 1
-23 63 l3 62 98 3 97 3 0 -196 0 -195 -192 2 -193 3 -3 310 c-1 170 0 315 3
322 3 10 51 13 195 13 l190 0 0 -110z m340 -510 l0 -620 60 0 61 0 -3 -67 -3
-68 -190 0 -190 0 0 65 0 65 58 3 57 3 0 554 0 555 -60 0 -60 0 0 65 0 65 135
0 135 0 0 -620z m-800 -165 l0 -64 -112 -3 -113 -3 -3 -62 -3 -62 98 -3 98 -3
3 -62 3 -62 -98 -3 -98 -3 -3 -62 -3 -63 116 0 115 0 0 -65 0 -65 -190 0 -190
0 0 325 0 325 190 0 190 0 0 -65z m460 -8 c0 -40 -4 -77 -9 -82 -10 -11 -211
-354 -211 -361 0 -2 48 -5 108 -6 l107 -3 3 -63 3 -62 -193 2 -193 3 -3 52
c-3 61 -10 46 124 274 57 97 104 179 104 183 0 3 -51 7 -112 8 l-113 3 -3 49
c-5 80 -15 76 198 76 l190 0 0 -73z"/>
</g>
</svg>
